<?xml version="1.0" encoding="UTF-8"?>
<svg width="40" height="40" viewBox="0 0 40 40" fill="none" xmlns="http://www.w3.org/2000/svg">
  <path d="M31 13H26V8H6C3.8 8 2 9.8 2 12V26H6C6 28.2 7.8 30 10 30C12.2 30 14 28.2 14 26H26C26 28.2 27.8 30 30 30C32.2 30 34 28.2 34 26H38V19L31 13Z" fill="#FF9800"/>
  <path d="M30 28C31.1 28 32 27.1 32 26C32 24.9 31.1 24 30 24C28.9 24 28 24.9 28 26C28 27.1 28.9 28 30 28Z" fill="#FFE0B2"/>
  <path d="M10 28C11.1 28 12 27.1 12 26C12 24.9 11.1 24 10 24C8.9 24 8 24.9 8 26C8 27.1 8.9 28 10 28Z" fill="#FFE0B2"/>
  <path d="M31 15L36 19H26V15H31Z" fill="#FFE0B2"/>
</svg>
