<?xml version="1.0" encoding="UTF-8"?>
<svg width="40" height="40" viewBox="0 0 40 40" fill="none" xmlns="http://www.w3.org/2000/svg">
  <path d="M35 10C35 8.34 33.66 7 32 7C30.34 7 29 8.34 29 10C29 11.66 30.34 13 32 13C33.66 13 35 11.66 35 10Z" fill="#FF7A00"/>
  <path d="M32 5C34.76 5 37 7.24 37 10C37 12.76 34.76 15 32 15C29.24 15 27 12.76 27 10C27 7.24 29.24 5 32 5ZM32 3C28.14 3 25 6.14 25 10C25 13.86 28.14 17 32 17C35.86 17 39 13.86 39 10C39 6.14 35.86 3 32 3Z" fill="#FF5722"/>
  <path d="M28 20V10L8 15V25L28 20Z" fill="#FF7A00"/>
  <path d="M8 15V25C5.79 25 4 23.21 4 21V19C4 16.79 5.79 15 8 15Z" fill="#FF5722"/>
</svg>
